<svg id="Logo" xmlns="http://www.w3.org/2000/svg" xmlns:xlink="http://www.w3.org/1999/xlink" viewBox="0 0 454.82 578.88"><defs><style>.cls-1{fill:url(#linear-gradient);}.cls-2{fill:url(#linear-gradient-2);}.cls-3{fill:url(#linear-gradient-3);}.cls-4{fill:url(#linear-gradient-4);}</style><linearGradient id="linear-gradient" x1="827.11" y1="327.04" x2="386.16" y2="13.74" gradientUnits="userSpaceOnUse"><stop offset="0.49" stop-color="#00bdf2"/><stop offset="1" stop-color="#003753"/></linearGradient><linearGradient id="linear-gradient-2" x1="280.38" y1="289.37" x2="737.11" y2="579.19" gradientUnits="userSpaceOnUse"><stop offset="0.6" stop-color="#00bdf2"/><stop offset="1" stop-color="#003753"/></linearGradient><linearGradient id="linear-gradient-3" x1="362.6" y1="58.44" x2="819.32" y2="348.26" gradientUnits="userSpaceOnUse"><stop offset="0.17" stop-color="#00bdf2"/><stop offset="0.73" stop-color="#003753"/></linearGradient><linearGradient id="linear-gradient-4" x1="760.1" y1="420.53" x2="293.52" y2="134.13" gradientUnits="userSpaceOnUse"><stop offset="0.15" stop-color="#00bdf2"/><stop offset="0.98" stop-color="#003753"/></linearGradient></defs><path class="cls-1" d="M785.87,302.74s-.15-.28-.43-.84c-.11-.19-.22-.41-.34-.66a.13.13,0,0,1,0-.05c-.16-.33-.36-.7-.6-1.14-.69-1.32-1.64-3.1-2.86-5.28-.41-.72-.84-1.5-1.29-2.32-18.07-31.81-79.71-127.93-177.14-153.23C485.89,108.77,425,210.27,485.89,231.7c-106.67-15.1-145.47-119-145.47-119S525.36-75,778,122.31Z" transform="translate(-331.04 -32.04)"/><path class="cls-2" d="M607.2,363.34s84.31,26.55-56.27,132.55c0,0-173.67-42.1-214.27-194.72,0,0-18.08,214.27,218,309.75,0,0,153.13-97.89,162.16-122.64C716.82,488.28,783.77,402.2,607.2,363.34Z" transform="translate(-331.04 -32.04)"/><path class="cls-3" d="M780.32,292.45c-18.07-31.81-79.71-127.93-177.14-153.23C485.89,108.77,425,210.27,485.89,231.7,393.58,218.63,352.1,139.09,342.6,117.9a6.74,6.74,0,0,1,2.43-8.34C575.34-45.67,747.79,234.24,780.32,292.45Z" transform="translate(-331.04 -32.04)"/><path class="cls-4" d="M716.75,489.94a.18.18,0,0,0,.07-.09c46.13-54.3,67.43-111.19,60-161.17-1.84-12.52-7.51-23-16.08-31.89-47.22-49-182.53-47.9-250.59-59.35a152.19,152.19,0,0,1-24.28-5.74c-106.67-15.1-145.47-119-145.47-119-35,182.69,26.31,232.87,209.75,244.15,35.17,2.16,51.49,7.25,71.43,11,2.26.42,141.69,47,95.16,121.22" transform="translate(-331.04 -32.04)"/></svg>