<svg id="Logo" xmlns="http://www.w3.org/2000/svg" xmlns:xlink="http://www.w3.org/1999/xlink" viewBox="0 0 378.71 444.57"><defs><style>.cls-1{fill:url(#linear-gradient);}.cls-2{fill:url(#linear-gradient-2);}.cls-3{fill:url(#linear-gradient-3);}.cls-4{fill:url(#linear-gradient-4);}.cls-5{font-size:87px;fill:#fff;font-family:SegoeUI-BoldItalic, Segoe UI;font-weight:700;font-style:italic;}.cls-6{letter-spacing:0em;}.cls-7{letter-spacing:0em;}</style><linearGradient id="linear-gradient" x1="693.91" y1="301.18" x2="441.29" y2="121.68" gradientUnits="userSpaceOnUse"><stop offset="0.49" stop-color="#00bdf2"/><stop offset="1" stop-color="#003753"/></linearGradient><linearGradient id="linear-gradient-2" x1="380.69" y1="279.59" x2="642.35" y2="445.64" gradientUnits="userSpaceOnUse"><stop offset="0.6" stop-color="#00bdf2"/><stop offset="1" stop-color="#003753"/></linearGradient><linearGradient id="linear-gradient-3" x1="427.79" y1="147.29" x2="689.46" y2="313.33" gradientUnits="userSpaceOnUse"><stop offset="0.17" stop-color="#00bdf2"/><stop offset="0.73" stop-color="#003753"/></linearGradient><linearGradient id="linear-gradient-4" x1="655.53" y1="354.74" x2="388.22" y2="190.66" gradientUnits="userSpaceOnUse"><stop offset="0.15" stop-color="#00bdf2"/><stop offset="0.98" stop-color="#003753"/></linearGradient></defs><path class="cls-1" d="M670.29,287.26l-.25-.49c-.06-.11-.12-.23-.19-.38l0,0c-.09-.19-.21-.41-.34-.66-.4-.75-.94-1.77-1.64-3-.24-.41-.48-.86-.74-1.33-10.36-18.22-45.67-73.29-101.49-87.79-67.19-17.44-102.08,40.71-67.19,53-61.12-8.65-83.35-68.16-83.35-68.16s106-107.57,250.68,5.49Z" transform="translate(-357.55 -132.17)"/><path class="cls-2" d="M567.93,322s48.3,15.21-32.24,75.95c0,0-99.5-24.13-122.76-111.56,0,0-10.36,122.75,124.9,177.46,0,0,87.73-56.09,92.9-70.27C630.73,393.55,669.08,344.24,567.93,322Z" transform="translate(-357.55 -132.17)"/><path class="cls-3" d="M667.11,281.36c-10.36-18.22-45.67-73.29-101.49-87.79-67.19-17.44-102.08,40.71-67.19,53-52.89-7.48-76.65-53.05-82.1-65.19a3.86,3.86,0,0,1,1.39-4.78C549.68,87.65,648.47,248,667.11,281.36Z" transform="translate(-357.55 -132.17)"/><path class="cls-4" d="M630.69,394.51l0-.06c26.43-31.11,38.63-63.7,34.39-92.33a32.67,32.67,0,0,0-9.22-18.27c-27-28.05-104.57-27.44-143.56-34a87.59,87.59,0,0,1-13.91-3.3c-61.12-8.65-83.35-68.16-83.35-68.16-20,104.67,15.08,133.42,120.18,139.88,20.14,1.24,29.49,4.15,40.91,6.28,1.3.24,81.18,26.92,54.53,69.45" transform="translate(-357.55 -132.17)"/><text class="cls-5" transform="translate(0 419.51)">Sky <tspan class="cls-6" x="166.35" y="0">B</tspan><tspan class="cls-7" x="222.3" y="0">ank</tspan></text></svg>